# Blender v3.5.0 OBJ File: ''
# www.blender.org
mtllib torus.mtl
v 1.000000 0.000000 0.000000
v 0.924698 0.200484 0.000000
v 0.755496 0.250000 0.000000
v 0.619806 0.111260 0.000000
v 0.619806 -0.111260 0.000000
v 0.755496 -0.250000 0.000000
v 0.924698 -0.200484 0.000000
v 0.707107 0.000000 -0.707107
v 0.653860 0.200484 -0.653860
v 0.534216 0.250000 -0.534216
v 0.438269 0.111260 -0.438269
v 0.438269 -0.111260 -0.438269
v 0.534216 -0.250000 -0.534216
v 0.653860 -0.200484 -0.653860
v 0.000000 0.000000 -1.000000
v 0.000000 0.200484 -0.924698
v 0.000000 0.250000 -0.755496
v 0.000000 0.111260 -0.619806
v 0.000000 -0.111260 -0.619806
v 0.000000 -0.250000 -0.755496
v 0.000000 -0.200484 -0.924698
v -0.707107 0.000000 -0.707107
v -0.653860 0.200484 -0.653860
v -0.534216 0.250000 -0.534216
v -0.438269 0.111260 -0.438269
v -0.438269 -0.111260 -0.438269
v -0.534216 -0.250000 -0.534216
v -0.653860 -0.200484 -0.653860
v -1.000000 0.000000 -0.000000
v -0.924698 0.200484 -0.000000
v -0.755496 0.250000 -0.000000
v -0.619806 0.111260 -0.000000
v -0.619806 -0.111260 -0.000000
v -0.755496 -0.250000 -0.000000
v -0.924698 -0.200484 -0.000000
v -0.707107 0.000000 0.707107
v -0.653860 0.200484 0.653860
v -0.534216 0.250000 0.534216
v -0.438269 0.111260 0.438269
v -0.438269 -0.111260 0.438269
v -0.534216 -0.250000 0.534216
v -0.653860 -0.200484 0.653860
v 0.000000 0.000000 1.000000
v 0.000000 0.200484 0.924698
v 0.000000 0.250000 0.755496
v 0.000000 0.111260 0.619806
v 0.000000 -0.111260 0.619806
v 0.000000 -0.250000 0.755496
v 0.000000 -0.200484 0.924698
v 0.707106 0.000000 0.707107
v 0.653860 0.200484 0.653861
v 0.534216 0.250000 0.534217
v 0.438269 0.111260 0.438269
v 0.438269 -0.111260 0.438269
v 0.534216 -0.250000 0.534217
v 0.653860 -0.200484 0.653861
vt 0.625000 0.571429
vt 0.500000 0.714286
vt 0.500000 0.571429
vt 0.625000 0.714286
vt 0.500000 0.857143
vt 0.625000 0.857143
vt 0.500000 1.000000
vt 0.625000 -0.000000
vt 0.500000 0.142857
vt 0.500000 -0.000000
vt 0.625000 0.142857
vt 0.500000 0.285714
vt 0.625000 0.285714
vt 0.500000 0.428571
vt 0.625000 0.428571
vt 0.750000 0.714286
vt 0.750000 0.857143
vt 0.625000 1.000000
vt 0.750000 -0.000000
vt 0.750000 0.142857
vt 0.750000 0.285714
vt 0.750000 0.428571
vt 0.750000 0.571429
vt 0.875000 0.714286
vt 0.875000 0.857143
vt 0.750000 1.000000
vt 0.875000 -0.000000
vt 0.875000 0.142857
vt 0.875000 0.285714
vt 0.875000 0.428571
vt 1.000000 0.571429
vt 0.875000 0.571429
vt 1.000000 0.857143
vt 0.875000 1.000000
vt 1.000000 -0.000000
vt 1.000000 0.142857
vt 1.000000 0.285714
vt 1.000000 0.428571
vt 0.125000 0.571429
vt 0.000000 0.714286
vt 0.000000 0.571429
vt 0.125000 0.857143
vt 0.000000 0.857143
vt 0.000000 1.000000
vt 0.125000 -0.000000
vt 0.000000 0.142857
vt 0.000000 -0.000000
vt 0.125000 0.142857
vt 0.000000 0.285714
vt 0.125000 0.285714
vt 0.000000 0.428571
vt 0.125000 0.428571
vt 0.250000 0.571429
vt 0.125000 0.714286
vt 0.250000 0.714286
vt 0.250000 0.857143
vt 0.125000 1.000000
vt 0.250000 -0.000000
vt 0.250000 0.142857
vt 0.250000 0.285714
vt 0.250000 0.428571
vt 0.375000 0.571429
vt 0.375000 0.714286
vt 0.375000 0.857143
vt 0.250000 1.000000
vt 0.375000 -0.000000
vt 0.375000 0.142857
vt 0.375000 0.285714
vt 0.375000 1.000000
vt 0.375000 0.428571
vt 1.000000 0.714286
vt 1.000000 1.000000
vn 0.8728 0.3278 -0.3615
vn 0.2790 0.9533 -0.1156
vn -0.6855 0.6704 0.2839
vn -0.9239 0.0000 0.3827
vn -0.6855 -0.6704 0.2839
vn 0.2790 -0.9533 -0.1156
vn 0.8728 -0.3278 -0.3615
vn 0.3615 0.3278 -0.8728
vn 0.1156 0.9533 -0.2790
vn -0.2839 0.6704 0.6855
vn -0.3827 0.0000 0.9239
vn -0.2839 -0.6704 0.6855
vn 0.1156 -0.9533 -0.2790
vn 0.3615 -0.3278 -0.8728
vn -0.3615 0.3278 -0.8728
vn -0.1156 0.9533 -0.2790
vn 0.2839 0.6704 0.6855
vn 0.3827 0.0000 0.9239
vn 0.2839 -0.6704 0.6855
vn -0.1156 -0.9533 -0.2790
vn -0.3615 -0.3278 -0.8728
vn -0.8728 0.3278 -0.3615
vn -0.2790 0.9533 -0.1156
vn 0.6855 0.6704 0.2839
vn 0.9239 0.0000 0.3827
vn 0.6855 -0.6704 0.2839
vn -0.2790 -0.9533 -0.1156
vn -0.8728 -0.3278 -0.3615
vn -0.8728 0.3278 0.3615
vn -0.2790 0.9533 0.1156
vn 0.6855 0.6704 -0.2839
vn 0.9239 0.0000 -0.3827
vn 0.6855 -0.6704 -0.2839
vn -0.2790 -0.9533 0.1156
vn -0.8728 -0.3278 0.3615
vn -0.3615 0.3278 0.8728
vn -0.1156 0.9533 0.2790
vn 0.2839 0.6704 -0.6855
vn 0.3827 0.0000 -0.9239
vn 0.2839 -0.6704 -0.6855
vn -0.1156 -0.9533 0.2790
vn -0.3615 -0.3278 0.8728
vn 0.3615 0.3278 0.8728
vn 0.1156 0.9533 0.2790
vn -0.2839 0.6704 -0.6855
vn -0.3827 0.0000 -0.9239
vn -0.2839 -0.6704 -0.6855
vn 0.1156 -0.9533 0.2790
vn 0.3615 -0.3278 0.8728
vn 0.8728 0.3278 0.3615
vn 0.2790 0.9533 0.1156
vn -0.6855 0.6704 -0.2839
vn -0.9239 0.0000 -0.3827
vn -0.6855 -0.6704 -0.2839
vn 0.2790 -0.9533 0.1156
vn 0.8728 -0.3278 0.3615
usemtl None
s off
f 8/1/1 2/2/1 1/3/1
f 9/4/2 3/5/2 2/2/2
f 10/6/3 4/7/3 3/5/3
f 11/8/4 5/9/4 4/10/4
f 12/11/5 6/12/5 5/9/5
f 13/13/6 7/14/6 6/12/6
f 14/15/7 1/3/7 7/14/7
f 8/1/8 16/16/8 9/4/8
f 16/16/9 10/6/9 9/4/9
f 17/17/10 11/18/10 10/6/10
f 18/19/11 12/11/11 11/8/11
f 19/20/12 13/13/12 12/11/12
f 20/21/13 14/15/13 13/13/13
f 21/22/14 8/1/14 14/15/14
f 15/23/15 23/24/15 16/16/15
f 23/24/16 17/17/16 16/16/16
f 24/25/17 18/26/17 17/17/17
f 25/27/18 19/20/18 18/19/18
f 26/28/19 20/21/19 19/20/19
f 27/29/20 21/22/20 20/21/20
f 28/30/21 15/23/21 21/22/21
f 29/31/22 23/24/22 22/32/22
f 23/24/23 31/33/23 24/25/23
f 31/33/24 25/34/24 24/25/24
f 32/35/25 26/28/25 25/27/25
f 33/36/26 27/29/26 26/28/26
f 34/37/27 28/30/27 27/29/27
f 35/38/28 22/32/28 28/30/28
f 36/39/29 30/40/29 29/41/29
f 30/40/30 38/42/30 31/43/30
f 38/42/31 32/44/31 31/43/31
f 39/45/32 33/46/32 32/47/32
f 40/48/33 34/49/33 33/46/33
f 41/50/34 35/51/34 34/49/34
f 42/52/35 29/41/35 35/51/35
f 43/53/36 37/54/36 36/39/36
f 44/55/37 38/42/37 37/54/37
f 45/56/38 39/57/38 38/42/38
f 46/58/39 40/48/39 39/45/39
f 47/59/40 41/50/40 40/48/40
f 48/60/41 42/52/41 41/50/41
f 49/61/42 36/39/42 42/52/42
f 50/62/43 44/55/43 43/53/43
f 51/63/44 45/56/44 44/55/44
f 52/64/45 46/65/45 45/56/45
f 53/66/46 47/59/46 46/58/46
f 54/67/47 48/60/47 47/59/47
f 55/68/48 49/61/48 48/60/48
f 49/61/49 50/62/49 43/53/49
f 1/3/50 51/63/50 50/62/50
f 51/63/51 3/5/51 52/64/51
f 3/5/52 53/69/52 52/64/52
f 4/10/53 54/67/53 53/66/53
f 5/9/54 55/68/54 54/67/54
f 6/12/55 56/70/55 55/68/55
f 7/14/56 50/62/56 56/70/56
f 8/1/1 9/4/1 2/2/1
f 9/4/2 10/6/2 3/5/2
f 10/6/3 11/18/3 4/7/3
f 11/8/4 12/11/4 5/9/4
f 12/11/5 13/13/5 6/12/5
f 13/13/6 14/15/6 7/14/6
f 14/15/7 8/1/7 1/3/7
f 8/1/8 15/23/8 16/16/8
f 16/16/9 17/17/9 10/6/9
f 17/17/10 18/26/10 11/18/10
f 18/19/11 19/20/11 12/11/11
f 19/20/12 20/21/12 13/13/12
f 20/21/13 21/22/13 14/15/13
f 21/22/14 15/23/14 8/1/14
f 15/23/15 22/32/15 23/24/15
f 23/24/16 24/25/16 17/17/16
f 24/25/17 25/34/17 18/26/17
f 25/27/18 26/28/18 19/20/18
f 26/28/19 27/29/19 20/21/19
f 27/29/20 28/30/20 21/22/20
f 28/30/21 22/32/21 15/23/21
f 29/31/22 30/71/22 23/24/22
f 23/24/23 30/71/23 31/33/23
f 31/33/24 32/72/24 25/34/24
f 32/35/25 33/36/25 26/28/25
f 33/36/26 34/37/26 27/29/26
f 34/37/27 35/38/27 28/30/27
f 35/38/28 29/31/28 22/32/28
f 36/39/29 37/54/29 30/40/29
f 30/40/30 37/54/30 38/42/30
f 38/42/31 39/57/31 32/44/31
f 39/45/32 40/48/32 33/46/32
f 40/48/33 41/50/33 34/49/33
f 41/50/34 42/52/34 35/51/34
f 42/52/35 36/39/35 29/41/35
f 43/53/36 44/55/36 37/54/36
f 44/55/37 45/56/37 38/42/37
f 45/56/38 46/65/38 39/57/38
f 46/58/39 47/59/39 40/48/39
f 47/59/40 48/60/40 41/50/40
f 48/60/41 49/61/41 42/52/41
f 49/61/42 43/53/42 36/39/42
f 50/62/43 51/63/43 44/55/43
f 51/63/44 52/64/44 45/56/44
f 52/64/45 53/69/45 46/65/45
f 53/66/46 54/67/46 47/59/46
f 54/67/47 55/68/47 48/60/47
f 55/68/48 56/70/48 49/61/48
f 49/61/49 56/70/49 50/62/49
f 1/3/50 2/2/50 51/63/50
f 51/63/51 2/2/51 3/5/51
f 3/5/52 4/7/52 53/69/52
f 4/10/53 5/9/53 54/67/53
f 5/9/54 6/12/54 55/68/54
f 6/12/55 7/14/55 56/70/55
f 7/14/56 1/3/56 50/62/56
